<?xml version="1.0" standalone="no"?>
<!DOCTYPE svg PUBLIC "-//W3C//DTD SVG 20010904//EN"
 "http://www.w3.org/TR/2001/REC-SVG-20010904/DTD/svg10.dtd">
<svg version="1.0" xmlns="http://www.w3.org/2000/svg"
 width="500.000000pt" height="500.000000pt" viewBox="0 0 500.000000 500.000000"
 preserveAspectRatio="xMidYMid meet">

<g transform="translate(0.000000,500.000000) scale(0.100000,-0.100000)"
fill="#000000" stroke="none">
<path d="M1015 3251 c-192 -56 -326 -188 -379 -372 -18 -63 -24 -173 -13 -241
l8 -46 84 -7 c138 -12 318 11 479 61 120 38 310 135 398 204 l78 61 -36 72
c-68 135 -213 245 -362 276 -76 16 -188 12 -257 -8z m-21 -203 c14 -6 28 -19
31 -30 4 -10 15 -18 26 -18 22 0 79 -51 79 -69 0 -8 -57 -11 -175 -11 -188 0
-191 1 -165 51 13 23 65 51 88 47 10 -1 31 7 46 20 33 25 36 26 70 10z m276
-196 c0 -5 11 -14 25 -20 14 -6 25 -18 25 -27 0 -12 -16 -15 -86 -15 -74 0
-85 2 -82 16 2 9 10 20 18 24 8 4 24 12 35 18 24 13 65 15 65 4z"/>
<path d="M1940 3215 c-24 -20 -50 -33 -59 -31 -38 11 -142 28 -146 24 -3 -2
22 -20 55 -38 33 -19 60 -39 60 -45 0 -6 -14 -30 -31 -53 -27 -37 -35 -42 -72
-43 -41 0 -42 0 -19 -16 12 -8 22 -22 22 -30 0 -8 5 -11 11 -7 6 3 22 -6 36
-22 l24 -29 -6 39 c-6 36 -3 42 36 82 24 24 46 44 50 44 4 0 24 -27 45 -60 57
-88 67 -82 34 22 -25 80 -25 87 4 117 13 15 26 38 30 54 9 39 -21 36 -74 -8z"/>
<path d="M1647 2765 c-121 -207 -305 -367 -575 -503 -75 -38 -158 -77 -184
-87 l-47 -17 69 -102 c38 -55 108 -150 156 -210 l88 -109 39 44 c57 63 226
291 282 379 134 210 214 405 222 545 3 44 1 90 -4 102 -7 19 -12 15 -46 -42z"/>
<path d="M2321 2752 c-54 -17 -84 -107 -62 -190 15 -54 54 -76 123 -70 75 8
92 30 96 127 4 70 2 80 -20 105 -25 30 -88 42 -137 28z m111 -39 c27 -24 26
-145 -2 -173 -25 -25 -101 -28 -124 -5 -33 33 -32 140 1 178 21 23 99 23 125
0z"/>
<path d="M2592 2745 c-57 -25 -80 -123 -47 -200 20 -50 76 -66 164 -49 31 6
31 7 31 70 l0 64 -50 0 c-38 0 -50 -4 -50 -15 0 -10 11 -15 35 -15 34 0 35 -1
35 -40 l0 -40 -53 0 c-80 0 -92 13 -92 100 0 90 18 110 101 110 41 0 54 4 54
15 0 20 -82 20 -128 0z"/>
<path d="M1780 2620 c0 -109 2 -130 15 -130 11 0 15 12 15 45 l0 45 49 0 c69
0 106 31 106 90 0 61 -27 80 -116 80 l-69 0 0 -130z m140 90 c43 -43 12 -95
-62 -103 l-48 -5 0 64 0 64 45 0 c32 0 51 -6 65 -20z"/>
<path d="M2020 2620 c0 -109 2 -130 15 -130 11 0 15 12 15 50 0 49 1 50 30 50
25 0 35 -8 62 -50 19 -29 41 -50 51 -50 20 0 18 6 -20 56 -28 38 -29 51 -4 59
27 8 45 64 32 98 -14 36 -40 47 -115 47 l-66 0 0 -130z m140 90 c22 -22 23
-25 14 -57 -7 -24 -49 -43 -95 -43 -29 0 -29 1 -29 60 l0 60 45 0 c32 0 51 -6
65 -20z"/>
<path d="M2790 2620 c0 -109 2 -130 15 -130 11 0 15 12 15 50 l0 50 33 0 c29
0 38 -7 68 -50 20 -30 42 -50 52 -50 16 0 14 7 -16 49 l-35 49 29 21 c24 18
29 29 29 66 0 61 -22 75 -117 75 l-73 0 0 -130z m134 100 c21 -8 26 -16 26
-44 0 -44 -21 -60 -78 -60 l-47 -1 -3 44 c-2 24 -1 50 2 57 6 16 63 19 100 4z"/>
<path d="M3105 2718 c-43 -105 -85 -213 -85 -220 0 -23 28 -3 39 27 l12 35 64
0 63 0 12 -35 c6 -19 18 -35 27 -35 18 0 18 0 -37 143 -49 128 -69 146 -95 85z
m72 -110 c5 -27 4 -28 -41 -28 -32 0 -46 4 -46 14 0 12 18 71 36 116 7 16 41
-53 51 -102z"/>
<path d="M3300 2620 c0 -159 18 -177 22 -22 l3 107 40 -77 c25 -50 45 -78 56
-78 11 0 28 25 50 75 l34 75 5 -102 c3 -68 9 -103 18 -106 9 -3 12 27 12 127
0 124 -1 131 -20 131 -15 0 -28 -19 -56 -80 -20 -44 -40 -80 -44 -80 -4 0 -24
36 -44 80 -28 61 -41 80 -56 80 -19 0 -20 -7 -20 -130z"/>
<path d="M3675 2718 c-43 -105 -85 -213 -85 -220 0 -4 6 -8 14 -8 8 0 20 16
26 35 l12 35 63 0 63 0 12 -35 c6 -19 18 -35 27 -35 18 0 18 0 -37 143 -49
128 -69 146 -95 85z m72 -110 c5 -27 4 -28 -41 -28 -32 0 -46 4 -46 14 0 12
18 71 36 116 7 16 41 -53 51 -102z"/>
<path d="M2010 2240 c0 -5 20 -10 45 -10 l45 0 0 -120 c0 -73 4 -120 10 -120
6 0 10 47 10 120 l0 120 33 2 c17 0 38 1 45 1 6 -1 12 3 12 8 0 5 -45 9 -100
9 -60 0 -100 -4 -100 -10z"/>
<path d="M2260 2155 c0 -52 5 -105 11 -119 24 -53 130 -59 169 -9 17 22 20 40
20 124 0 55 -4 99 -9 99 -4 0 -10 -45 -13 -100 -3 -59 -10 -105 -18 -115 -8
-10 -29 -15 -60 -15 -31 0 -52 5 -60 15 -8 10 -15 56 -18 115 -3 55 -9 100
-13 100 -5 0 -9 -43 -9 -95z"/>
<path d="M2617 2153 c19 -54 40 -113 46 -130 20 -64 41 -43 92 93 43 114 51
154 26 128 -5 -5 -27 -61 -49 -124 l-39 -114 -13 39 c-41 129 -73 205 -86 205
-9 0 -4 -26 23 -97z"/>
<path d="M2851 2120 c-2 -112 0 -130 13 -130 14 0 16 19 16 130 0 102 -3 130
-13 130 -11 0 -14 -29 -16 -130z"/>
<path d="M3026 2242 c-3 -6 -38 -91 -93 -229 -3 -7 1 -13 9 -13 7 0 19 14 25
30 11 29 13 30 76 30 l65 0 12 -35 c6 -19 18 -35 26 -35 15 0 18 -11 -47 158
-37 92 -57 119 -73 94z m74 -159 c0 -2 -25 -3 -55 -3 -30 0 -55 3 -55 8 0 4 9
32 20 62 12 30 23 62 26 70 3 9 18 -17 35 -60 16 -41 29 -76 29 -77z"/>
<path d="M3291 2148 c-2 -118 -9 -130 -70 -132 -50 -1 -53 -11 -7 -20 42 -8
80 8 95 41 17 37 15 213 -3 213 -10 0 -14 -23 -15 -102z"/>
<path d="M3390 2119 c0 -115 2 -130 16 -125 9 3 47 6 85 6 39 0 69 4 69 10 0
6 -32 10 -76 10 l-75 0 3 48 3 47 63 3 c82 4 80 22 -3 22 l-65 0 0 45 0 45 70
0 c40 0 70 4 70 10 0 6 -33 10 -80 10 l-80 0 0 -131z"/>
<path d="M2540 1815 c0 -27 2 -46 4 -44 8 8 10 78 3 85 -4 4 -7 -14 -7 -41z"/>
<path d="M2588 1819 c-2 -22 0 -43 4 -45 4 -3 8 15 8 40 0 57 -7 60 -12 5z"/>
<path d="M2653 1815 c0 -27 2 -38 4 -22 2 15 2 37 0 50 -2 12 -4 0 -4 -28z"/>
<path d="M2713 1815 c0 -27 2 -38 4 -22 2 15 2 37 0 50 -2 12 -4 0 -4 -28z"/>
<path d="M2760 1851 c0 -6 4 -13 10 -16 6 -3 7 1 4 9 -7 18 -14 21 -14 7z"/>
<path d="M3280 1815 c0 -27 2 -46 4 -44 8 8 10 78 3 85 -4 4 -7 -14 -7 -41z"/>
<path d="M3328 1819 c-2 -22 0 -43 4 -45 4 -3 8 15 8 40 0 57 -7 60 -12 5z"/>
<path d="M1652 1815 c0 -16 2 -22 5 -12 2 9 2 23 0 30 -3 6 -5 -1 -5 -18z"/>
<path d="M2972 1815 c0 -16 2 -22 5 -12 2 9 2 23 0 30 -3 6 -5 -1 -5 -18z"/>
<path d="M2796 1787 c3 -10 9 -15 12 -12 3 3 0 11 -7 18 -10 9 -11 8 -5 -6z"/>
<path d="M3500 1792 c0 -6 -8 -13 -17 -15 -16 -4 -16 -5 -1 -6 18 -1 34 16 24
26 -3 4 -6 1 -6 -5z"/>
<path d="M1747 1778 c2 -5 10 -8 18 -8 8 0 16 3 18 8 3 4 -5 7 -18 7 -13 0
-21 -3 -18 -7z"/>
<path d="M2388 1778 c5 -5 16 -8 23 -6 8 3 3 7 -10 11 -17 4 -21 3 -13 -5z"/>
<path d="M3067 1778 c2 -5 10 -8 18 -8 8 0 16 3 18 8 3 4 -5 7 -18 7 -13 0
-21 -3 -18 -7z"/>
<path d="M3797 1778 c2 -5 10 -8 18 -8 8 0 16 3 18 8 3 4 -5 7 -18 7 -13 0
-21 -3 -18 -7z"/>
<path d="M2108 1773 c6 -2 18 -2 25 0 6 3 1 5 -13 5 -14 0 -19 -2 -12 -5z"/>
<path d="M2478 1773 c6 -2 18 -2 25 0 6 3 1 5 -13 5 -14 0 -19 -2 -12 -5z"/>
</g>
</svg>
